# xmcd CD database file
#
# Track frame offsets:
#	150
#	27082
#	45747
#	70427
#	98282
#	100622
#	122960
#	146365
#	173875
#	195515
#	208392
#	233022
#
# Disc length: 3465 seconds
#
# Revision: 4
# Processed by: cddbd v1.5.1PL0 Copyright (c) Steve Scherf et al.
# Submitted via: CDex 1.51
#
DISCID=9f0d870c
DTITLE=Vanderhoof - Vanderhoof
DYEAR=1900
DGENRE=Hard Rock
TTITLE0=Bleed
TTITLE1=Machine
TTITLE2=Take To The Sky
TTITLE3=Falling To Earth
TTITLE4=Earth
TTITLE5=Angle Now
TTITLE6=Out Alive
TTITLE7=Beg
TTITLE8=50 Cents Symphony
TTITLE9=Tons Of Time
TTITLE10=40 Days Down
TTITLE11=Game Is Played
EXTD=
EXTT0=
EXTT1=
EXTT2=
EXTT3=
EXTT4=
EXTT5=
EXTT6=
EXTT7=
EXTT8=
EXTT9=
EXTT10=
EXTT11=
PLAYORDER=
